<svg width="14" height="14" viewBox="0 0 14 14" fill="none" xmlns="http://www.w3.org/2000/svg">
<path d="M8.43298 13.75C8.01876 13.75 7.68298 13.4142 7.68298 13V7C7.68298 6.58577 8.01876 6.25 8.43298 6.25H12.933C13.3472 6.25 13.683 6.58577 13.683 7V13C13.683 13.4142 13.3472 13.75 12.933 13.75H8.43298ZM0.932983 7.75C0.518773 7.75 0.182983 7.41423 0.182983 7V1C0.182983 0.58579 0.518773 0.25 0.932983 0.25H5.43298C5.84721 0.25 6.18298 0.58579 6.18298 1V7C6.18298 7.41423 5.84721 7.75 5.43298 7.75H0.932983ZM4.68298 6.25V1.75H1.68298V6.25H4.68298ZM0.932983 13.75C0.518773 13.75 0.182983 13.4142 0.182983 13V10C0.182983 9.58578 0.518773 9.25 0.932983 9.25H5.43298C5.84721 9.25 6.18298 9.58578 6.18298 10V13C6.18298 13.4142 5.84721 13.75 5.43298 13.75H0.932983ZM1.68298 12.25H4.68298V10.75H1.68298V12.25ZM9.18298 12.25H12.183V7.75H9.18298V12.25ZM7.68298 1C7.68298 0.58579 8.01876 0.25 8.43298 0.25H12.933C13.3472 0.25 13.683 0.58579 13.683 1V4C13.683 4.41421 13.3472 4.75 12.933 4.75H8.43298C8.01876 4.75 7.68298 4.41421 7.68298 4V1ZM9.18298 1.75V3.25H12.183V1.75H9.18298Z" fill="#00A76F"/>
</svg>
