<svg width="165" height="104" viewBox="0 0 165 104" fill="none" xmlns="http://www.w3.org/2000/svg">
<path d="M159.789 58.6059L164.545 53.85C164.987 53.4076 164.987 52.7439 164.545 52.3015C164.103 51.8591 163.439 51.8591 162.997 52.3015L158.241 57.0574L153.485 52.3015C153.042 51.8591 152.379 51.8591 151.936 52.3015C151.494 52.7439 151.494 53.4076 151.936 53.85L156.692 58.6059L151.936 63.3618C151.494 63.8042 151.494 64.4678 151.936 64.9102C152.158 65.1314 152.379 65.242 152.711 65.242C153.042 65.242 153.264 65.1314 153.485 64.9102L158.241 60.1543L162.997 64.9102C163.218 65.1314 163.55 65.242 163.771 65.242C163.992 65.242 164.324 65.1314 164.545 64.9102C164.987 64.4678 164.987 63.8042 164.545 63.3618L159.789 58.6059Z" fill="#D90006"/>
<path d="M44.9317 42.926L47.2425 40.6152C47.4574 40.4003 47.4574 40.0778 47.2425 39.8629C47.0275 39.6479 46.7051 39.6479 46.4901 39.8629L44.1794 42.1736L41.8686 39.8629C41.6537 39.6479 41.3312 39.6479 41.1163 39.8629C40.9013 40.0778 40.9013 40.4003 41.1163 40.6152L43.427 42.926L41.1163 45.2367C40.9013 45.4517 40.9013 45.7741 41.1163 45.989C41.2238 46.0965 41.3312 46.1502 41.4925 46.1502C41.6537 46.1502 41.7612 46.0965 41.8686 45.989L44.1794 43.6783L46.4901 45.989C46.5976 46.0965 46.7588 46.1502 46.8663 46.1502C46.9738 46.1502 47.135 46.0965 47.2425 45.989C47.4574 45.7741 47.4574 45.4517 47.2425 45.2367L44.9317 42.926Z" fill="#DE0006"/>
<path d="M9.24781 27.4982L14.6215 22.1245C15.1214 21.6246 15.1214 20.8748 14.6215 20.3749C14.1217 19.875 13.3718 19.875 12.8719 20.3749L7.49822 25.7486L2.1245 20.3749C1.62461 19.875 0.874793 19.875 0.374911 20.3749C-0.12497 20.8748 -0.12497 21.6246 0.374911 22.1245L5.74864 27.4982L0.374911 32.8719C-0.12497 33.3718 -0.12497 34.1216 0.374911 34.6215C0.624852 34.8715 0.874792 34.9964 1.2497 34.9964C1.62461 34.9964 1.87455 34.8715 2.1245 34.6215L7.49822 29.2478L12.8719 34.6215C13.1219 34.8715 13.4968 34.9964 13.7467 34.9964C13.9967 34.9964 14.3716 34.8715 14.6215 34.6215C15.1214 34.1216 15.1214 33.3718 14.6215 32.8719L9.24781 27.4982Z" fill="#DB0006"/>
<path d="M32.849 78.192L36.2976 74.7433C36.6184 74.4225 36.6184 73.9413 36.2976 73.6205C35.9768 73.2997 35.4956 73.2997 35.1748 73.6205L31.7261 77.0691L28.2775 73.6205C27.9567 73.2997 27.4755 73.2997 27.1547 73.6205C26.8339 73.9413 26.8339 74.4225 27.1547 74.7433L30.6033 78.192L27.1547 81.6406C26.8339 81.9614 26.8339 82.4426 27.1547 82.7634C27.3151 82.9238 27.4755 83.004 27.7161 83.004C27.9567 83.004 28.1171 82.9238 28.2775 82.7634L31.7261 79.3148L35.1748 82.7634C35.3352 82.9238 35.5758 83.004 35.7362 83.004C35.8966 83.004 36.1372 82.9238 36.2976 82.7634C36.6184 82.4426 36.6184 81.9614 36.2976 81.6406L32.849 78.192Z" fill="#DB0006"/>
<g clip-path="url(#clip0_1166_1853)">
<path d="M111.185 12.9614H93.3635V9.72106C93.3635 4.36091 89.0026 0 83.6424 0H70.681C65.3209 0 60.9599 4.36091 60.9599 9.72106V12.9614H43.138C38.6712 12.9614 35.0371 16.5955 35.0371 21.0623V32.4035C35.0371 34.193 36.488 35.6439 38.2775 35.6439H40.0483L42.8478 94.4326C43.0951 99.6245 47.3602 103.691 52.5577 103.691H101.766C106.963 103.691 111.229 99.6245 111.476 94.4326L114.275 35.6439H116.046C117.835 35.6439 119.286 34.193 119.286 32.4035V21.0623C119.286 16.5955 115.652 12.9614 111.185 12.9614ZM67.4407 9.72106C67.4407 7.93441 68.8944 6.48071 70.681 6.48071H83.6424C85.4291 6.48071 86.8828 7.93441 86.8828 9.72106V12.9614H67.4407V9.72106ZM41.5178 21.0623C41.5178 20.169 42.2447 19.4421 43.138 19.4421H111.185C112.079 19.4421 112.806 20.169 112.806 21.0623V29.1632C111.807 29.1632 45.656 29.1632 41.5178 29.1632V21.0623ZM105.002 94.1244C104.92 95.855 103.498 97.2106 101.766 97.2106H52.5577C50.8251 97.2106 49.4034 95.855 49.3212 94.1244L46.5363 35.6439H107.787L105.002 94.1244Z" fill="#D90006"/>
<path d="M77.1613 90.7298C78.9507 90.7298 80.4016 89.279 80.4016 87.4895V45.3649C80.4016 43.5754 78.9507 42.1245 77.1613 42.1245C75.3718 42.1245 73.9209 43.5754 73.9209 45.3649V87.4895C73.9209 89.279 75.3716 90.7298 77.1613 90.7298Z" fill="#D90006"/>
<path d="M93.3634 90.7298C95.1529 90.7298 96.6038 89.279 96.6038 87.4895V45.3649C96.6038 43.5754 95.1529 42.1245 93.3634 42.1245C91.5739 42.1245 90.123 43.5754 90.123 45.3649V87.4895C90.123 89.279 91.5737 90.7298 93.3634 90.7298Z" fill="#D90006"/>
<path d="M60.9601 90.7298C62.7496 90.7298 64.2004 89.279 64.2004 87.4895V45.3649C64.2004 43.5754 62.7496 42.1245 60.9601 42.1245C59.1706 42.1245 57.7197 43.5754 57.7197 45.3649V87.4895C57.7197 89.279 59.1704 90.7298 60.9601 90.7298Z" fill="#D90006"/>
<path d="M126.078 10.2227L128.486 7.81442C128.71 7.59039 128.71 7.25435 128.486 7.03032C128.262 6.8063 127.926 6.8063 127.702 7.03032L125.294 9.43861L122.886 7.03032C122.662 6.8063 122.326 6.8063 122.102 7.03032C121.878 7.25435 121.878 7.59039 122.102 7.81442L124.51 10.2227L122.102 12.631C121.878 12.855 121.878 13.1911 122.102 13.4151C122.214 13.5271 122.326 13.5831 122.494 13.5831C122.662 13.5831 122.774 13.5271 122.886 13.4151L125.294 11.0068L127.702 13.4151C127.814 13.5271 127.982 13.5831 128.094 13.5831C128.206 13.5831 128.374 13.5271 128.486 13.4151C128.71 13.1911 128.71 12.855 128.486 12.631L126.078 10.2227Z" fill="#D90006"/>
</g>
<defs>
<clipPath id="clip0_1166_1853">
<rect width="103.691" height="103.691" fill="white" transform="translate(30)"/>
</clipPath>
</defs>
</svg>
