<svg width="16" height="15" viewBox="0 0 16 15" fill="none" xmlns="http://www.w3.org/2000/svg">
<path d="M5.43298 11.25C5.43298 11.25 10.683 12 12.933 14.25H13.683C14.0972 14.25 14.433 13.9142 14.433 13.5V8.95275C15.0799 8.78625 15.558 8.19893 15.558 7.5C15.558 6.80107 15.0799 6.21375 14.433 6.04725V1.5C14.433 1.08579 14.0972 0.75 13.683 0.75H12.933C10.683 3 5.43298 3.75 5.43298 3.75H2.43298C1.60456 3.75 0.932983 4.42157 0.932983 5.25V9.75C0.932983 10.5785 1.60456 11.25 2.43298 11.25H3.18298L3.93298 15H5.43298V11.25ZM6.93298 4.9959C7.44546 4.88595 8.07861 4.73395 8.76246 4.5328C10.0211 4.1626 11.6205 3.57947 12.933 2.68094V12.319C11.6205 11.4205 10.0211 10.8374 8.76246 10.4672C8.07861 10.2661 7.44546 10.1141 6.93298 10.0041V4.9959ZM2.43298 5.25H5.43298V9.75H2.43298V5.25Z" fill="#00A76F"/>
</svg>
