<svg width="22" height="22" viewBox="0 0 22 22" fill="none" xmlns="http://www.w3.org/2000/svg">
<path d="M21.0834 5.50002V12.8334C21.0834 13.4352 20.9649 14.0312 20.7345 14.5873C20.5042 15.1434 20.1666 15.6487 19.741 16.0743C19.3154 16.4999 18.8101 16.8375 18.254 17.0678C17.698 17.2981 17.102 17.4167 16.5001 17.4167H5.50008C4.89819 17.4167 4.30219 17.2981 3.74612 17.0678C3.19004 16.8375 2.68478 16.4999 2.25918 16.0743C1.39963 15.2147 0.916748 14.0489 0.916748 12.8334V5.50002C0.916748 4.28445 1.39963 3.11866 2.25918 2.25911C3.11872 1.39957 4.28451 0.916687 5.50008 0.916687H16.5001C17.102 0.916687 17.698 1.03524 18.254 1.26557C18.8101 1.49591 19.3154 1.83351 19.741 2.25911C20.1666 2.68472 20.5042 3.18998 20.7345 3.74605C20.9649 4.30213 21.0834 4.89813 21.0834 5.50002ZM4.58342 7.33335C4.58342 7.57647 4.67999 7.80963 4.8519 7.98154C5.02381 8.15344 5.25697 8.25002 5.50008 8.25002H11.0001C11.2432 8.25002 11.4764 8.15344 11.6483 7.98154C11.8202 7.80963 11.9167 7.57647 11.9167 7.33335C11.9167 7.09024 11.8202 6.85708 11.6483 6.68517C11.4764 6.51326 11.2432 6.41669 11.0001 6.41669H5.50008C5.25697 6.41669 5.02381 6.51326 4.8519 6.68517C4.67999 6.85708 4.58342 7.09024 4.58342 7.33335ZM17.4167 11C17.4167 10.7569 17.3202 10.5237 17.1483 10.3518C16.9764 10.1799 16.7432 10.0834 16.5001 10.0834H5.50008C5.25697 10.0834 5.02381 10.1799 4.8519 10.3518C4.67999 10.5237 4.58342 10.7569 4.58342 11C4.58342 11.2431 4.67999 11.4763 4.8519 11.6482C5.02381 11.8201 5.25697 11.9167 5.50008 11.9167H16.5001C16.7432 11.9167 16.9764 11.8201 17.1483 11.6482C17.3202 11.4763 17.4167 11.2431 17.4167 11Z" fill="#C1C7CD"/>
<path d="M5.50016 20.5333H16.5002C16.7433 20.5333 16.9764 20.4367 17.1483 20.2648C17.3203 20.0929 17.4168 19.8597 17.4168 19.6166C17.4168 19.3735 17.3203 19.1403 17.1483 18.9684C16.9764 18.7965 16.7433 18.7 16.5002 18.7H5.50016C5.25705 18.7 5.02389 18.7965 4.85198 18.9684C4.68007 19.1403 4.5835 19.3735 4.5835 19.6166C4.5835 19.8597 4.68007 20.0929 4.85198 20.2648C5.02389 20.4367 5.25705 20.5333 5.50016 20.5333Z" fill="#637381"/>
</svg>
