<svg width="20" height="20" viewBox="0 0 20 20" fill="none" xmlns="http://www.w3.org/2000/svg">
<path opacity="0.4" d="M13.3964 1.66669H16.2181C17.3866 1.66669 18.3335 2.62156 18.3335 3.79999V6.64546C18.3335 7.82388 17.3866 8.77876 16.2181 8.77876H13.3964C12.2279 8.77876 11.281 7.82388 11.281 6.64546V3.79999C11.281 2.62156 12.2279 1.66669 13.3964 1.66669Z" fill="#C1C7CD"/>
<path d="M6.60382 11.2213C7.77238 11.2213 8.71926 12.1762 8.71926 13.3546V16.2001C8.71926 17.3777 7.77238 18.3334 6.60382 18.3334H3.78219C2.61363 18.3334 1.66675 17.3777 1.66675 16.2001V13.3546C1.66675 12.1762 2.61363 11.2213 3.78219 11.2213H6.60382ZM16.218 11.2213C17.3865 11.2213 18.3334 12.1762 18.3334 13.3546V16.2001C18.3334 17.3777 17.3865 18.3334 16.218 18.3334H13.3963C12.2278 18.3334 11.2809 17.3777 11.2809 16.2001V13.3546C11.2809 12.1762 12.2278 11.2213 13.3963 11.2213H16.218ZM6.60382 1.66669C7.77238 1.66669 8.71926 2.62156 8.71926 3.79999V6.64546C8.71926 7.82388 7.77238 8.77876 6.60382 8.77876H3.78219C2.61363 8.77876 1.66675 7.82388 1.66675 6.64546V3.79999C1.66675 2.62156 2.61363 1.66669 3.78219 1.66669H6.60382Z" fill="#637381"/>
</svg>
