<svg width="14" height="14" viewBox="0 0 14 14" fill="none" xmlns="http://www.w3.org/2000/svg">
<path d="M4.08322 3.49993V1.74993C4.08322 1.42777 4.34439 1.1666 4.66655 1.1666H11.6666C11.9887 1.1666 12.2499 1.42777 12.2499 1.74993V9.9166C12.2499 10.2388 11.9887 10.4999 11.6666 10.4999H9.91655V12.2494C9.91655 12.5719 9.65411 12.8333 9.32925 12.8333H2.33722C2.01284 12.8333 1.75 12.5739 1.75 12.2494L1.75152 4.08377C1.75157 3.76133 2.01404 3.49993 2.33883 3.49993H4.08322ZM2.91808 4.6666L2.91678 11.6666H8.74988V4.6666H2.91808ZM5.24988 3.49993H9.91655V9.33326H11.0832V2.33326H5.24988V3.49993Z" fill="#637381"/>
</svg>
