<svg width="21" height="22" viewBox="0 0 21 22" fill="none" xmlns="http://www.w3.org/2000/svg">
<g clip-path="url(#clip0_74_5066)">
<rect x="6" y="5" width="10" height="14" fill="#637381"/>
<path d="M21 11C21 13.7848 19.8938 16.4555 17.9246 18.4246C15.9555 20.3938 13.2848 21.5 10.5 21.5C7.71523 21.5 5.04451 20.3938 3.07538 18.4246C1.10625 16.4555 0 13.7848 0 11C0 8.21523 1.10625 5.54451 3.07538 3.57538C5.04451 1.60625 7.71523 0.5 10.5 0.5C13.2848 0.5 15.9555 1.60625 17.9246 3.57538C19.8938 5.54451 21 8.21523 21 11ZM7.2135 8.41831H8.29631C8.47744 8.41831 8.62181 8.27 8.64544 8.09019C8.76356 7.22919 9.35419 6.60181 10.4068 6.60181C11.3072 6.60181 12.1314 7.052 12.1314 8.13481C12.1314 8.96825 11.6406 9.3515 10.8649 9.93425C9.98156 10.5761 9.282 11.3255 9.33187 12.5422L9.33581 12.827C9.33719 12.9131 9.37237 12.9952 9.43375 13.0556C9.49514 13.116 9.57782 13.1499 9.66394 13.1499H10.7284C10.8154 13.1499 10.8989 13.1153 10.9604 13.0538C11.0219 12.9922 11.0565 12.9088 11.0565 12.8217V12.6839C11.0565 11.7416 11.4148 11.4672 12.3821 10.7336C13.1814 10.1259 14.0149 9.45125 14.0149 8.03506C14.0149 6.05188 12.3401 5.09375 10.5066 5.09375C8.84363 5.09375 7.02188 5.86812 6.89719 8.09412C6.89539 8.13651 6.90228 8.17882 6.91744 8.21844C6.9326 8.25806 6.9557 8.29417 6.98533 8.32453C7.01496 8.3549 7.05048 8.37888 7.08972 8.39501C7.12896 8.41114 7.17108 8.41907 7.2135 8.41831ZM10.2651 16.8748C11.0657 16.8748 11.6156 16.3576 11.6156 15.6581C11.6156 14.9336 11.0644 14.4243 10.2651 14.4243C9.49856 14.4243 8.94075 14.9336 8.94075 15.6581C8.94075 16.3576 9.49725 16.8748 10.2651 16.8748Z" fill="#C1C7CD"/>
</g>
<defs>
<clipPath id="clip0_74_5066">
<rect width="21" height="21" fill="white" transform="translate(0 0.5)"/>
</clipPath>
</defs>
</svg>
