<svg width="16" height="16" viewBox="0 0 16 16" fill="none" xmlns="http://www.w3.org/2000/svg">
<g id="Frame">
<path id="Vector" d="M13.333 7.99992C13.333 5.0544 10.9452 2.66659 7.99967 2.66659C5.05415 2.66659 2.66634 5.0544 2.66634 7.99992C2.66634 10.9455 5.05415 13.3333 7.99967 13.3333C10.9452 13.3333 13.333 10.9455 13.333 7.99992ZM14.6663 7.99992C14.6663 11.6818 11.6815 14.6666 7.99967 14.6666C4.31777 14.6666 1.33301 11.6818 1.33301 7.99992C1.33301 4.31802 4.31777 1.33325 7.99967 1.33325C11.6815 1.33325 14.6663 4.31802 14.6663 7.99992ZM8.99987 5.33325C9.21821 5.62396 9.37467 5.96381 9.44967 6.33325H10.6663V7.33325H9.44967C9.21801 8.47438 8.20914 9.33325 6.99967 9.33325H6.87347L9.35321 11.8131L8.64614 12.5201L5.33301 9.20705V8.33325H6.99967C7.65281 8.33325 8.20841 7.91585 8.41434 7.33325H5.33301V6.33325H8.41434C8.20841 5.75066 7.65281 5.33325 6.99967 5.33325H5.33301V4.33325H10.6663V5.33325H8.99987Z" fill="#00A76F"/>
</g>
</svg>
