<svg width="16" height="16" viewBox="0 0 16 16" fill="none" xmlns="http://www.w3.org/2000/svg">
<g id="Frame">
<path id="Vector" d="M11.3333 12.6667H12.6667V9.33333H6.66667V3.33333H3.33333V4.66667H4.66667V6H3.33333V7.33333H5.33333V8.66667H3.33333V10H4.66667V11.3333H3.33333V12.6667H4.66667V11.3333H6V12.6667H7.33333V10.6667H8.66667V12.6667H10V11.3333H11.3333V12.6667ZM8 8H13.3333C13.7015 8 14 8.29847 14 8.66667V13.3333C14 13.7015 13.7015 14 13.3333 14H2.66667C2.29848 14 2 13.7015 2 13.3333V2.66667C2 2.29848 2.29848 2 2.66667 2H7.33333C7.70153 2 8 2.29848 8 2.66667V8Z" fill="#00A76F"/>
</g>
</svg>
