<svg width="298" height="83" viewBox="0 0 298 83" fill="none" xmlns="http://www.w3.org/2000/svg">
<path d="M13.3458 70.3742L0.989164 81.2493C0.297085 81.8584 0.727907 83 1.64985 83H297C297.552 83 298 82.5523 298 82V47.7427C298 47.5832 297.962 47.426 297.889 47.2843L284.06 20.4786C283.63 19.6447 282.392 19.8091 282.194 20.7264L277.094 44.3888C277.014 44.7627 276.727 45.0579 276.355 45.1492L255.347 50.3122C254.898 50.4224 254.433 50.2112 254.22 49.8012L235.066 12.8446C234.951 12.6229 234.758 12.4522 234.523 12.3661L201.118 0.0911404C200.955 0.0314053 200.78 0.0149154 200.609 0.0432854L167.968 5.46333C167.822 5.48748 167.684 5.54348 167.563 5.62733L139.962 24.7137C139.701 24.8938 139.371 24.9399 139.071 24.838L109.148 14.6649C108.844 14.5614 108.508 14.6107 108.246 14.7975L88.0439 29.2018C87.7814 29.389 87.4448 29.4381 87.1398 29.3338L66.5952 22.3085C66.0902 22.1358 65.5385 22.3901 65.3419 22.8863L53.6735 52.3342C53.63 52.4439 53.5675 52.545 53.4889 52.6329L33.0024 75.5174C32.7395 75.811 32.3287 75.9229 31.9533 75.8031L14.3105 70.1722C13.9758 70.0654 13.6096 70.1421 13.3458 70.3742Z" fill="#00A76F" fill-opacity="0.08"/>
</svg>
