<svg width="19" height="20" viewBox="0 0 19 20" fill="none" xmlns="http://www.w3.org/2000/svg">
<path d="M11.1202 15.1143L6.92129 12.886C6.19135 13.645 5.15261 14.1193 4 14.1193C1.79086 14.1193 0 12.3769 0 10.2277C0 8.07838 1.79086 6.33606 4 6.33606C5.15255 6.33606 6.19125 6.81031 6.92118 7.56917L11.1202 5.34091C11.0417 5.03666 11 4.71819 11 4.39026C11 2.24098 12.7909 0.498657 15 0.498657C17.2091 0.498657 19 2.24098 19 4.39026C19 6.53953 17.2091 8.28186 15 8.28186C13.8474 8.28186 12.8087 7.80758 12.0787 7.04867L7.87977 9.27694C7.9583 9.58116 8 9.89969 8 10.2277C8 10.5556 7.95831 10.874 7.87981 11.1783L12.0788 13.4066C12.8087 12.6477 13.8474 12.1735 15 12.1735C17.2091 12.1735 19 13.9158 19 16.0651C19 18.2143 17.2091 19.9567 15 19.9567C12.7909 19.9567 11 18.2143 11 16.0651C11 15.7371 11.0417 15.4186 11.1202 15.1143ZM4 12.1735C5.10457 12.1735 6 11.3023 6 10.2277C6 9.15299 5.10457 8.28186 4 8.28186C2.89543 8.28186 2 9.15299 2 10.2277C2 11.3023 2.89543 12.1735 4 12.1735ZM15 6.33606C16.1046 6.33606 17 5.46489 17 4.39026C17 3.31562 16.1046 2.44446 15 2.44446C13.8954 2.44446 13 3.31562 13 4.39026C13 5.46489 13.8954 6.33606 15 6.33606ZM15 18.0109C16.1046 18.0109 17 17.1397 17 16.0651C17 14.9904 16.1046 14.1193 15 14.1193C13.8954 14.1193 13 14.9904 13 16.0651C13 17.1397 13.8954 18.0109 15 18.0109Z" fill="#00A76F"/>
</svg>
