<svg width="18" height="18" viewBox="0 0 18 18" fill="none" xmlns="http://www.w3.org/2000/svg">
<path d="M13.9679 17.7439C13.7567 17.7439 13.5466 17.6791 13.3657 17.55L9.11293 14.5001L4.86017 17.55C4.68397 17.6767 4.47223 17.7446 4.25517 17.7438C4.03811 17.7431 3.82684 17.6738 3.65152 17.5458C3.47604 17.4185 3.34515 17.2392 3.27748 17.0333C3.20981 16.8274 3.2088 16.6053 3.2746 16.3988L4.8607 11.2798L0.646096 8.30994C0.471428 8.18104 0.341709 8.00048 0.275288 7.7938C0.208867 7.58713 0.209106 7.36481 0.275972 7.15827C0.343366 6.95225 0.473803 6.77261 0.648851 6.64474C0.823898 6.51688 1.0347 6.44727 1.25147 6.44573L6.47136 6.43789L8.13326 1.44593C8.20184 1.24028 8.33338 1.06143 8.50925 0.934686C8.68513 0.807945 8.89641 0.739746 9.1132 0.739746C9.32998 0.739746 9.54126 0.807945 9.71714 0.934686C9.89301 1.06143 10.0245 1.24028 10.0931 1.44593L11.7268 6.43789L16.9734 6.44573C17.1904 6.44696 17.4015 6.51654 17.5767 6.64459C17.7519 6.77265 17.8824 6.95266 17.9494 7.15906C18.0165 7.36546 18.0169 7.58775 17.9504 7.79435C17.884 8.00095 17.7541 8.18136 17.5792 8.30994L13.3646 11.2798L14.9507 16.3988C15.0167 16.6053 15.0158 16.8273 14.9482 17.0332C14.8806 17.2392 14.7498 17.4185 14.5743 17.5458C14.3985 17.6748 14.186 17.7442 13.9679 17.7439Z" fill="#E9E9E9"/>
</svg>
