<svg width="18" height="18" viewBox="0 0 18 18" fill="none" xmlns="http://www.w3.org/2000/svg">
<path d="M13.748 17.7434C13.5368 17.7434 13.3267 17.6786 13.1458 17.5495L8.89303 14.4996L4.64026 17.5495C4.46406 17.6762 4.25232 17.7441 4.03526 17.7433C3.8182 17.7426 3.60693 17.6733 3.43161 17.5453C3.25613 17.4181 3.12524 17.2387 3.05757 17.0328C2.9899 16.8269 2.98889 16.6049 3.05469 16.3983L4.64079 11.2793L0.426186 8.30946C0.251518 8.18055 0.121799 7.99999 0.0553782 7.79332C-0.0110426 7.58664 -0.0108032 7.36432 0.0560626 7.15779C0.123456 6.95176 0.253894 6.77212 0.428941 6.64426C0.603988 6.5164 0.814791 6.44678 1.03156 6.44525L6.25145 6.43741L7.91335 1.44544C7.98193 1.2398 8.11347 1.06094 8.28935 0.934197C8.46522 0.807457 8.67651 0.739258 8.89329 0.739258C9.11007 0.739258 9.32135 0.807457 9.49723 0.934197C9.6731 1.06094 9.80464 1.2398 9.87323 1.44544L11.5069 6.43741L16.7534 6.44525C16.9705 6.44647 17.1816 6.51605 17.3568 6.64411C17.532 6.77216 17.6625 6.95217 17.7295 7.15857C17.7966 7.36497 17.797 7.58726 17.7305 7.79386C17.664 8.00046 17.5342 8.18087 17.3593 8.30946L13.1447 11.2793L14.7308 16.3983C14.7968 16.6048 14.7959 16.8268 14.7283 17.0327C14.6607 17.2387 14.5299 17.418 14.3544 17.5453C14.1786 17.6743 13.9661 17.7437 13.748 17.7434Z" fill="#00A76F"/>
</svg>
