<svg width="24" height="24" viewBox="0 0 24 24" fill="none" xmlns="http://www.w3.org/2000/svg">
<path d="M20 6.75006C21.5188 6.75006 22.75 5.51884 22.75 4.00006C22.75 2.48128 21.5188 1.25006 20 1.25006C18.4812 1.25006 17.25 2.48128 17.25 4.00006C17.25 5.51884 18.4812 6.75006 20 6.75006Z" fill="#637381"/>
<path opacity="0.4" d="M20.0001 8.00006C17.7901 8.00006 16.0001 6.21006 16.0001 4.00006C16.0001 3.27006 16.2101 2.59006 16.5601 2.00006H7.00006C4.24006 2.00006 2.00006 4.23006 2.00006 6.98006V12.9601V13.9601C2.00006 16.7101 4.24006 18.9401 7.00006 18.9401H8.50006C8.77006 18.9401 9.13006 19.1201 9.30006 19.3401L10.8001 21.3301C11.4601 22.2101 12.5401 22.2101 13.2001 21.3301L14.7001 19.3401C14.8901 19.0901 15.1901 18.9401 15.5001 18.9401H17.0001C19.7601 18.9401 22.0001 16.7101 22.0001 13.9601V7.44006C21.4101 7.79006 20.7301 8.00006 20.0001 8.00006Z" fill="#637381"/>
<path d="M12.0001 11.9999C11.4401 11.9999 11.0001 11.5499 11.0001 10.9999C11.0001 10.4499 11.4501 9.99994 12.0001 9.99994C12.5501 9.99994 13.0001 10.4499 13.0001 10.9999C13.0001 11.5499 12.5601 11.9999 12.0001 11.9999Z" fill="#637381"/>
<path d="M16 11.9999C15.44 11.9999 15 11.5499 15 10.9999C15 10.4499 15.45 9.99994 16 9.99994C16.55 9.99994 17 10.4499 17 10.9999C17 11.5499 16.56 11.9999 16 11.9999Z" fill="#637381"/>
<path d="M7.99994 11.9999C7.43994 11.9999 6.99994 11.5499 6.99994 10.9999C6.99994 10.4499 7.44994 9.99994 7.99994 9.99994C8.54994 9.99994 8.99994 10.4499 8.99994 10.9999C8.99994 11.5499 8.55994 11.9999 7.99994 11.9999Z" fill="#637381"/>
</svg>
