<svg width="16" height="15" viewBox="0 0 16 15" fill="none" xmlns="http://www.w3.org/2000/svg">
<path d="M14 7.49991C14 4.1862 11.3137 1.49991 8 1.49991C4.68629 1.49991 2 4.1862 2 7.49991C2 10.8136 4.68629 13.4999 8 13.4999C11.3137 13.4999 14 10.8136 14 7.49991ZM15.5 7.49991C15.5 11.642 12.1421 14.9999 8 14.9999C3.85786 14.9999 0.5 11.642 0.5 7.49991C0.5 3.35777 3.85786 -9.15527e-05 8 -9.15527e-05C12.1421 -9.15527e-05 15.5 3.35777 15.5 7.49991ZM9.12523 4.49991C9.37085 4.82695 9.54688 5.20929 9.63125 5.62491H11V6.74991H9.63125C9.37063 8.03368 8.23565 8.99991 6.875 8.99991H6.73303L9.52273 11.7897L8.72727 12.5851L5 8.85793V7.87491H6.875C7.60978 7.87491 8.23482 7.40533 8.4665 6.74991H5V5.62491H8.4665C8.23482 4.96949 7.60978 4.49991 6.875 4.49991H5V3.37491H11V4.49991H9.12523Z" fill="#00A76F"/>
</svg>
