<svg width="28" height="28" viewBox="0 0 28 28" fill="none" xmlns="http://www.w3.org/2000/svg">
<path d="M20.5566 12.5416C20.0549 12.5416 19.6583 12.1333 19.6583 11.6433C19.6583 11.2116 19.2266 10.3133 18.5033 9.53163C17.7916 8.7733 17.0099 8.32996 16.3566 8.32996C15.8549 8.32996 15.4583 7.92163 15.4583 7.43163C15.4583 6.94163 15.8666 6.53329 16.3566 6.53329C17.5233 6.53329 18.7483 7.16329 19.8216 8.29496C20.8249 9.35663 21.4666 10.675 21.4666 11.6316C21.4666 12.1333 21.0583 12.5416 20.5566 12.5416Z" fill="#00A76F"/>
<path d="M24.7688 12.5416C24.2671 12.5416 23.8705 12.1333 23.8705 11.6433C23.8705 7.50163 20.4988 4.14163 16.3688 4.14163C15.8671 4.14163 15.4705 3.7333 15.4705 3.2433C15.4705 2.7533 15.8671 2.3333 16.3571 2.3333C21.4905 2.3333 25.6671 6.50996 25.6671 11.6433C25.6671 12.1333 25.2588 12.5416 24.7688 12.5416Z" fill="#00A76F"/>
<path opacity="0.4" d="M13.7549 16.5783L9.93992 20.3933C9.51992 20.02 9.11158 19.635 8.71492 19.2383C7.51325 18.025 6.42825 16.7533 5.45992 15.4233C4.50325 14.0933 3.73325 12.7633 3.17325 11.445C2.61325 10.115 2.33325 8.8433 2.33325 7.62996C2.33325 6.83663 2.47325 6.0783 2.75325 5.3783C3.03325 4.66663 3.47659 4.0133 4.09492 3.42996C4.84159 2.69496 5.65825 2.3333 6.52159 2.3333C6.84825 2.3333 7.17492 2.4033 7.46659 2.5433C7.76992 2.6833 8.03825 2.8933 8.24825 3.19663L10.9549 7.01163C11.1649 7.3033 11.3166 7.57163 11.4216 7.8283C11.5266 8.0733 11.5849 8.3183 11.5849 8.53996C11.5849 8.81996 11.5033 9.09996 11.3399 9.3683C11.1883 9.63663 10.9666 9.91663 10.6866 10.1966L9.79992 11.1183C9.67158 11.2466 9.61325 11.3983 9.61325 11.585C9.61325 11.6783 9.62492 11.76 9.64825 11.8533C9.68325 11.9466 9.71825 12.0166 9.74159 12.0866C9.95159 12.4716 10.3133 12.9733 10.8266 13.58C11.3516 14.1866 11.9116 14.805 12.5183 15.4233C12.9383 15.8316 13.3466 16.2283 13.7549 16.5783Z" fill="#00A76F"/>
<path d="M25.6321 21.3849C25.6321 21.7116 25.5738 22.0499 25.4571 22.3766C25.4221 22.4699 25.3871 22.5632 25.3404 22.6566C25.1421 23.0766 24.8854 23.4732 24.5471 23.8466C23.9754 24.4766 23.3454 24.9316 22.6338 25.2232C22.6221 25.2232 22.6104 25.2349 22.5988 25.2349C21.9104 25.5149 21.1638 25.6666 20.3588 25.6666C19.1688 25.6666 17.8971 25.3866 16.5554 24.8149C15.2138 24.2432 13.8721 23.4732 12.5421 22.5049C12.0871 22.1666 11.6321 21.8282 11.2004 21.4666L15.0154 17.6516C15.3421 17.8966 15.6338 18.0832 15.8788 18.2116C15.9371 18.2349 16.0071 18.2699 16.0888 18.3049C16.1821 18.3399 16.2754 18.3516 16.3804 18.3516C16.5788 18.3516 16.7304 18.2816 16.8588 18.1532L17.7454 17.2782C18.0371 16.9866 18.3171 16.7649 18.5854 16.6249C18.8538 16.4616 19.1221 16.3799 19.4138 16.3799C19.6354 16.3799 19.8688 16.4266 20.1254 16.5316C20.3821 16.6366 20.6504 16.7882 20.9421 16.9866L24.8038 19.7282C25.1071 19.9382 25.3171 20.1832 25.4454 20.4749C25.5621 20.7666 25.6321 21.0582 25.6321 21.3849Z" fill="#00A76F"/>
</svg>
