<svg width="28" height="28" viewBox="0 0 28 28" fill="none" xmlns="http://www.w3.org/2000/svg">
<path opacity="0.4" d="M8.16659 3.5H19.8333C23.3333 3.5 25.6666 5.25 25.6666 9.33333V12.9967C25.6666 13.8484 24.7916 14.385 24.0099 14.0467C22.7266 13.4867 21.2683 13.2767 19.7399 13.5217C16.6833 14.0233 14.1866 16.4383 13.5683 19.4717C13.3933 20.3583 13.3699 21.2217 13.4866 22.05C13.5799 22.7383 13.0199 23.345 12.3316 23.345H8.16659C4.66659 23.345 2.33325 21.595 2.33325 17.5117V9.34501C2.33325 5.25001 4.66659 3.5 8.16659 3.5Z" fill="#00A76F"/>
<path d="M14.0001 13.8483C13.0201 13.8483 12.0284 13.545 11.2701 12.9266L7.6184 10.01C7.24507 9.70663 7.17507 9.15831 7.4784 8.78497C7.78174 8.41164 8.33006 8.34165 8.70339 8.64498L12.3551 11.5616C13.2417 12.2733 14.7467 12.2733 15.6334 11.5616L19.2851 8.64498C19.6584 8.34165 20.2184 8.39997 20.51 8.78497C20.8134 9.15831 20.7551 9.71829 20.3701 10.01L16.7184 12.9266C15.9717 13.545 14.9801 13.8483 14.0001 13.8483Z" fill="#00A76F"/>
<path d="M21.0001 15.1667C17.7801 15.1667 15.1667 17.7683 15.1667 21C15.1667 24.22 17.7801 26.8333 21.0001 26.8333C24.2317 26.8333 26.8334 24.22 26.8334 21C26.8334 17.7683 24.2317 15.1667 21.0001 15.1667ZM23.3917 20.475L22.9601 20.895L20.4284 23.4383C20.3118 23.5433 20.0901 23.66 19.9267 23.6833L18.7834 23.8467C18.3751 23.905 18.0834 23.6133 18.1417 23.205L18.3051 22.0617C18.3284 21.8983 18.4334 21.6767 18.5501 21.56L21.0934 19.0283L21.5134 18.5967C21.7934 18.3167 22.1084 18.13 22.4351 18.13C22.7151 18.13 23.0301 18.2583 23.3801 18.5967C24.1501 19.3667 23.9051 19.9616 23.3917 20.475Z" fill="#00A76F"/>
</svg>
