<svg width="20" height="20" viewBox="0 0 20 20" fill="none" xmlns="http://www.w3.org/2000/svg">
<path d="M17.9667 8.95006L16.8333 7.63339C16.6167 7.38339 16.4417 6.91673 16.4417 6.58339V5.16673C16.4417 4.28339 15.7167 3.55839 14.8333 3.55839H13.4167C13.0917 3.55839 12.6167 3.38339 12.3667 3.16673L11.05 2.03339C10.475 1.54173 9.53334 1.54173 8.95 2.03339L7.64167 3.17506C7.39167 3.38339 6.91667 3.55839 6.59167 3.55839H5.15C4.26667 3.55839 3.54167 4.28339 3.54167 5.16673V6.59173C3.54167 6.91673 3.36667 7.38339 3.15834 7.63339L2.03334 8.95839C1.55 9.53339 1.55 10.4667 2.03334 11.0417L3.15834 12.3667C3.36667 12.6167 3.54167 13.0834 3.54167 13.4084V14.8334C3.54167 15.7167 4.26667 16.4417 5.15 16.4417H6.59167C6.91667 16.4417 7.39167 16.6167 7.64167 16.8334L8.95834 17.9667C9.53334 18.4584 10.475 18.4584 11.0583 17.9667L12.375 16.8334C12.625 16.6167 13.0917 16.4417 13.425 16.4417H14.8417C15.725 16.4417 16.45 15.7167 16.45 14.8334V13.4167C16.45 13.0917 16.625 12.6167 16.8417 12.3667L17.975 11.0501C18.4583 10.4751 18.4583 9.52506 17.9667 8.95006ZM13.4667 8.42506L9.44167 12.4501C9.325 12.5667 9.16667 12.6334 9 12.6334C8.83334 12.6334 8.675 12.5667 8.55834 12.4501L6.54167 10.4334C6.3 10.1917 6.3 9.79173 6.54167 9.55006C6.78334 9.30839 7.18334 9.30839 7.425 9.55006L9 11.1251L12.5833 7.54173C12.825 7.30006 13.225 7.30006 13.4667 7.54173C13.7083 7.78339 13.7083 8.18339 13.4667 8.42506Z" fill="#00A76F"/>
</svg>
