<svg width="24" height="24" viewBox="0 0 24 24" fill="none" xmlns="http://www.w3.org/2000/svg">
<path fill-rule="evenodd" clip-rule="evenodd" d="M7.5 7.875C7.5 7.25368 8.00368 6.75 8.625 6.75H22.125C22.7463 6.75 23.25 7.25368 23.25 7.875C23.25 8.49632 22.7463 9 22.125 9H8.625C8.00368 9 7.5 8.49632 7.5 7.875Z" fill="#C1C7CD"/>
<path fill-rule="evenodd" clip-rule="evenodd" d="M7.5 13.125C7.5 12.5037 8.00368 12 8.625 12H22.125C22.7463 12 23.25 12.5037 23.25 13.125C23.25 13.7463 22.7463 14.25 22.125 14.25H8.625C8.00368 14.25 7.5 13.7463 7.5 13.125Z" fill="#C1C7CD"/>
<path fill-rule="evenodd" clip-rule="evenodd" d="M7.5 18.375C7.5 17.7537 8.00368 17.25 8.625 17.25H22.125C22.7463 17.25 23.25 17.7537 23.25 18.375C23.25 18.9963 22.7463 19.5 22.125 19.5H8.625C8.00368 19.5 7.5 18.9963 7.5 18.375Z" fill="#C1C7CD"/>
<path fill-rule="evenodd" clip-rule="evenodd" d="M3 7.5C3 6.67157 3.67157 6 4.5 6C5.32843 6 6 6.67157 6 7.5C6 8.32843 5.32843 9 4.5 9C3.67157 9 3 8.32843 3 7.5Z" fill="#637381"/>
<path fill-rule="evenodd" clip-rule="evenodd" d="M3 12.75C3 11.9216 3.67157 11.25 4.5 11.25C5.32843 11.25 6 11.9216 6 12.75C6 13.5784 5.32843 14.25 4.5 14.25C3.67157 14.25 3 13.5784 3 12.75Z" fill="#637381"/>
<path fill-rule="evenodd" clip-rule="evenodd" d="M3 18C3 17.1716 3.67157 16.5 4.5 16.5C5.32843 16.5 6 17.1716 6 18C6 18.8284 5.32843 19.5 4.5 19.5C3.67157 19.5 3 18.8284 3 18Z" fill="#637381"/>
</svg>
