<svg width="19" height="19" viewBox="0 0 19 19" fill="none" xmlns="http://www.w3.org/2000/svg">
<path d="M5.54159 2.37508V0.791748H7.12492V2.37508H11.8749V0.791748H13.4583V2.37508H16.6249C17.0622 2.37508 17.4166 2.72953 17.4166 3.16675V7.12508H15.8333V3.95841H13.4583V5.54175H11.8749V3.95841H7.12492V5.54175H5.54159V3.95841H3.16659V15.0417H7.91659V16.6251H2.37492C1.9377 16.6251 1.58325 16.2707 1.58325 15.8334V3.16675C1.58325 2.72953 1.9377 2.37508 2.37492 2.37508H5.54159ZM13.4583 9.50008C11.7094 9.50008 10.2916 10.9179 10.2916 12.6667C10.2916 14.4156 11.7094 15.8334 13.4583 15.8334C15.2071 15.8334 16.6249 14.4156 16.6249 12.6667C16.6249 10.9179 15.2071 9.50008 13.4583 9.50008ZM8.70825 12.6667C8.70825 10.0434 10.8349 7.91675 13.4583 7.91675C16.0816 7.91675 18.2083 10.0434 18.2083 12.6667C18.2083 15.2901 16.0816 17.4167 13.4583 17.4167C10.8349 17.4167 8.70825 15.2901 8.70825 12.6667ZM12.6666 10.2917V12.9947L14.4818 14.8099L15.6014 13.6903L14.2499 12.3388V10.2917H12.6666Z" fill="#212B36"/>
</svg>
