<svg width="12" height="11" viewBox="0 0 12 11" fill="none" xmlns="http://www.w3.org/2000/svg">
<path d="M10.8707 2.21988L8.53738 3.88821C8.22822 4.10988 7.78488 3.97571 7.65072 3.61988L6.54822 0.67988C6.36155 0.17238 5.64405 0.17238 5.45738 0.67988L4.34905 3.61405C4.21488 3.97571 3.77738 4.10988 3.46822 3.88238L1.13488 2.21405C0.668217 1.88738 0.0498838 2.34821 0.242384 2.89071L2.66905 9.68655C2.75072 9.91988 2.97238 10.0715 3.21738 10.0715H8.77655C9.02155 10.0715 9.24322 9.91405 9.32488 9.68655L11.7516 2.89071C11.9499 2.34821 11.3316 1.88738 10.8707 2.21988ZM7.45822 7.60405H4.54155C4.30238 7.60405 4.10405 7.40571 4.10405 7.16655C4.10405 6.92738 4.30238 6.72905 4.54155 6.72905H7.45822C7.69738 6.72905 7.89572 6.92738 7.89572 7.16655C7.89572 7.40571 7.69738 7.60405 7.45822 7.60405Z" fill="white"/>
</svg>
